<svg xmlns="http://www.w3.org/2000/svg" width="162" height="42" viewBox="0 0 162 42">
  <g id="Group_22" data-name="Group 22" transform="translate(-246.485 -355.539)">
    <rect id="Rectangle_36" data-name="Rectangle 36" width="4.321" height="29.379" transform="translate(274.062 355.539)" fill="#fff"/>
    <path id="Path_41" data-name="Path 41" d="M584.369,416.854a8.893,8.893,0,0,0-5.065-4.042,8.683,8.683,0,0,0-2.648-.465,10.581,10.581,0,0,0-5.227,1.371q-5.483,3.044-5.483,10.315a13.507,13.507,0,0,0,1.557,6.528,10.417,10.417,0,0,0,4.809,4.577,9.991,9.991,0,0,0,4.344.906q4.6,0,7.713-4.391v3.624h4.275V412.951h-4.275Zm-1.716,12.94a6.7,6.7,0,0,1-5.5,2.486,6.157,6.157,0,0,1-3.317-1.022q-3.572-2.254-3.572-7.225a8.136,8.136,0,0,1,1.09-4.275,6.766,6.766,0,0,1,6.077-3.624,6.6,6.6,0,0,1,5.219,2.323,8.163,8.163,0,0,1,1.9,5.483A8.884,8.884,0,0,1,582.654,429.794Z" transform="translate(-283.195 -50.317)" fill="#fff"/>
    <path id="Path_42" data-name="Path 42" d="M837.089,412.347a7.429,7.429,0,0,0-6.807,4,6.987,6.987,0,0,0-6.435-4,5.991,5.991,0,0,0-2.718.627,6.93,6.93,0,0,0-3.229,2.788h-.093v-2.811h-4.228v22.326h4.228V423.568q0-7.433,4.67-7.434a3.764,3.764,0,0,1,3.787,2.416,12.847,12.847,0,0,1,.7,4.833v11.895h4.275V423.2q0-7.063,4.716-7.063a3.639,3.639,0,0,1,3.578,2.021,10.383,10.383,0,0,1,.7,4.368v12.754H844.5v-13.66Q844.5,412.347,837.089,412.347Z" transform="translate(-502.715 -50.319)" fill="#fff"/>
    <path id="Path_43" data-name="Path 43" d="M1132.453,432.28a6.474,6.474,0,0,1-5.064-2.184,7.666,7.666,0,0,1-1.836-5.25H1142.4l.047-1.324a12.612,12.612,0,0,0-1.045-5.273q-2.417-5.9-9.432-5.9a11.285,11.285,0,0,0-4.461.86,9.876,9.876,0,0,0-5.46,5.785,11.78,11.78,0,0,0-.883,4.3q0,5.784,2.927,9.223a9.828,9.828,0,0,0,7.876,3.531,11.635,11.635,0,0,0,10.524-6.063l-3.671-2.138Q1136.565,432.281,1132.453,432.28Zm-4.53-14.741a6.427,6.427,0,0,1,4.344-1.5,5.56,5.56,0,0,1,4.066,1.6,6.714,6.714,0,0,1,1.882,3.973h-12.476A6.657,6.657,0,0,1,1127.923,417.539Z" transform="translate(-775.381 -50.317)" fill="#fff"/>
    <path id="Path_44" data-name="Path 44" d="M1348.3,416.761v-3.809h-4.275v22.326h4.275V423.94q0-7.457,4.948-7.457a4.428,4.428,0,0,1,2.858.86l1.951-4a6.347,6.347,0,0,0-3.624-1Q1350.275,412.347,1348.3,416.761Z" transform="translate(-972.945 -50.319)" fill="#fff"/>
    <path id="Path_45" data-name="Path 45" d="M1491.993,412.951v3.9a8.893,8.893,0,0,0-5.065-4.042,8.684,8.684,0,0,0-2.648-.465,10.581,10.581,0,0,0-5.227,1.371q-5.483,3.044-5.483,10.315a13.507,13.507,0,0,0,1.557,6.528,10.417,10.417,0,0,0,4.809,4.577,9.991,9.991,0,0,0,4.344.906q4.6,0,7.713-4.391v3.624h4.275V412.951Zm-1.716,16.843a6.7,6.7,0,0,1-5.5,2.486,6.157,6.157,0,0,1-3.317-1.022q-3.572-2.254-3.572-7.225a8.135,8.135,0,0,1,1.09-4.275,6.766,6.766,0,0,1,6.077-3.624,6.6,6.6,0,0,1,5.219,2.323,8.163,8.163,0,0,1,1.9,5.483A8.884,8.884,0,0,1,1490.278,429.794Z" transform="translate(-1087.783 -50.317)" fill="#fff"/>
    <path id="Path_46" data-name="Path 46" d="M260.244,434.711a11.527,11.527,0,1,0-11.523-11.523A11.539,11.539,0,0,0,260.244,434.711Zm-6.016-11.827a12.028,12.028,0,0,0,5.712-5.721,4.013,4.013,0,0,0,.3-1.4,4.01,4.01,0,0,0,.3,1.4,12.044,12.044,0,0,0,5.721,5.721,4.014,4.014,0,0,0,1.4.3,4.013,4.013,0,0,0-1.4.3,12.062,12.062,0,0,0-5.721,5.712,4.011,4.011,0,0,0-.3,1.4,4.013,4.013,0,0,0-.3-1.4,12.01,12.01,0,0,0-5.712-5.712,4.013,4.013,0,0,0-1.4-.3A4.014,4.014,0,0,0,254.228,422.883Z" transform="translate(-1.982 -49.707)" fill="#fff"/>
    <path id="Path_47" data-name="Path 47" d="M264.47,615.91a6.2,6.2,0,1,1-12.408,0V615.3h-5.577v.611a11.781,11.781,0,1,0,23.562,0V615.3H264.47Z" transform="translate(0 -230.153)" fill="#fff"/>
  </g>
</svg>
